<svg width="790" height="145" viewBox="0 0 158 29" fill="none" xmlns="http://www.w3.org/2000/svg">
<path d="M37.0124 22V5.81564H43.3977C44.6199 5.81564 45.6631 6.03428 46.5271 6.47155C47.3963 6.90355 48.0575 7.51732 48.5106 8.31284C48.9689 9.10309 49.1981 10.033 49.1981 11.1024C49.1981 12.1772 48.9663 13.1018 48.5027 13.8762C48.0391 14.6454 47.3674 15.2354 46.4876 15.6464C45.613 16.0573 44.5541 16.2628 43.3107 16.2628H39.0355V13.5127H42.7576C43.4108 13.5127 43.9535 13.4231 44.3855 13.244C44.8175 13.0649 45.1389 12.7962 45.3496 12.438C45.5656 12.0797 45.6736 11.6345 45.6736 11.1024C45.6736 10.5651 45.5656 10.112 45.3496 9.74319C45.1389 9.37441 44.8149 9.09519 44.3776 8.90553C43.9456 8.7106 43.4003 8.61313 42.7418 8.61313H40.4342V22H37.0124ZM45.7526 14.6349L49.775 22H45.9976L42.0621 14.6349H45.7526ZM55.7766 22.2371C54.528 22.2371 53.4532 21.9842 52.5523 21.4784C51.6567 20.9674 50.9666 20.2456 50.4819 19.3131C49.9972 18.3754 49.7549 17.2664 49.7549 15.9862C49.7549 14.7376 49.9972 13.6418 50.4819 12.6987C50.9666 11.7557 51.6488 11.0208 52.5286 10.4939C53.4137 9.9671 54.4516 9.70368 55.6422 9.70368C56.443 9.70368 57.1885 9.83275 57.8786 10.0909C58.5741 10.3438 59.1799 10.7257 59.6962 11.2368C60.2178 11.7478 60.6235 12.3905 60.9132 13.165C61.203 13.9342 61.3479 14.835 61.3479 15.8676V16.7922H51.0983V14.706H58.1789C58.1789 14.2213 58.0736 13.7919 57.8628 13.4179C57.6521 13.0438 57.3597 12.7514 56.9857 12.5407C56.6169 12.3247 56.1875 12.2167 55.6975 12.2167C55.1865 12.2167 54.7334 12.3352 54.3383 12.5723C53.9485 12.8041 53.6429 13.1176 53.4216 13.5127C53.2004 13.9026 53.0871 14.3372 53.0818 14.8166V16.8001C53.0818 17.4007 53.1925 17.9197 53.4137 18.3569C53.6403 18.7942 53.959 19.1314 54.3699 19.3685C54.7809 19.6055 55.2682 19.7241 55.8319 19.7241C56.2059 19.7241 56.5484 19.6714 56.8592 19.566C57.1701 19.4607 57.4361 19.3026 57.6574 19.0919C57.8786 18.8811 58.0472 18.623 58.1631 18.3174L61.2767 18.5229C61.1187 19.271 60.7947 19.9243 60.3047 20.4827C59.82 21.0359 59.1931 21.4679 58.4239 21.7787C57.66 22.0843 56.7776 22.2371 55.7766 22.2371ZM65.8934 22.2292C65.1189 22.2292 64.4288 22.0948 63.8229 21.8261C63.2171 21.5522 62.7376 21.1492 62.3847 20.6171C62.037 20.0797 61.8631 19.4106 61.8631 18.6098C61.8631 17.9355 61.9869 17.3691 62.2345 16.9108C62.4821 16.4524 62.8193 16.0836 63.246 15.8044C63.6728 15.5252 64.1575 15.3145 64.7001 15.1722C65.248 15.03 65.8223 14.9299 66.4228 14.8719C67.1288 14.7982 67.6978 14.7297 68.1298 14.6665C68.5618 14.598 68.8753 14.4979 69.0702 14.3662C69.2651 14.2345 69.3626 14.0395 69.3626 13.7814V13.734C69.3626 13.2335 69.2045 12.8462 68.8884 12.5723C68.5776 12.2983 68.1351 12.1614 67.5608 12.1614C66.955 12.1614 66.4729 12.2957 66.1147 12.5644C65.7564 12.8278 65.5193 13.1597 65.4034 13.5601L62.2898 13.3072C62.4479 12.5697 62.7587 11.9322 63.2223 11.3948C63.6859 10.8522 64.2839 10.436 65.0162 10.1462C65.7538 9.85119 66.6072 9.70368 67.5766 9.70368C68.251 9.70368 68.8963 9.78271 69.5127 9.94075C70.1344 10.0988 70.6849 10.3438 71.1644 10.6757C71.649 11.0076 72.031 11.4343 72.3102 11.9559C72.5894 12.4722 72.7291 13.0912 72.7291 13.813V22H69.5364V20.3168H69.4416C69.2467 20.6961 68.9859 21.0306 68.6593 21.3204C68.3326 21.6049 67.9401 21.8288 67.4818 21.9921C67.0234 22.1501 66.494 22.2292 65.8934 22.2292ZM66.8575 19.9058C67.3527 19.9058 67.79 19.8084 68.1693 19.6134C68.5486 19.4132 68.8463 19.1446 69.0623 18.8074C69.2783 18.4702 69.3863 18.0883 69.3863 17.6615V16.3734C69.2809 16.4419 69.136 16.5051 68.9517 16.5631C68.7725 16.6158 68.5697 16.6658 68.3432 16.7132C68.1166 16.7554 67.8901 16.7949 67.6635 16.8318C67.437 16.8634 67.2315 16.8923 67.0471 16.9187C66.652 16.9766 66.3069 17.0688 66.0119 17.1953C65.7169 17.3217 65.4877 17.4929 65.3244 17.7089C65.1611 17.9197 65.0794 18.1831 65.0794 18.4992C65.0794 18.9575 65.2454 19.3079 65.5773 19.5502C65.9145 19.7873 66.3412 19.9058 66.8575 19.9058ZM79.7125 22.2371C78.4692 22.2371 77.3997 21.9737 76.5041 21.4468C75.6137 20.9147 74.9289 20.1772 74.4494 19.2341C73.9753 18.2911 73.7382 17.2058 73.7382 15.9783C73.7382 14.735 73.9779 13.6444 74.4573 12.7066C74.942 11.7636 75.6295 11.0287 76.5199 10.5018C77.4102 9.96973 78.4692 9.70368 79.6967 9.70368C80.7556 9.70368 81.6829 9.89597 82.4784 10.2806C83.2739 10.6652 83.9035 11.2052 84.3671 11.9006C84.8307 12.596 85.0862 13.4126 85.1336 14.3504H81.9568C81.8673 13.7445 81.6302 13.2572 81.2456 12.8884C80.8663 12.5143 80.3684 12.3273 79.752 12.3273C79.2305 12.3273 78.7747 12.4696 78.3849 12.7541C78.0003 13.0333 77.7 13.4416 77.484 13.9789C77.268 14.5163 77.16 15.167 77.16 15.9309C77.16 16.7053 77.2654 17.3639 77.4761 17.9065C77.6921 18.4491 77.995 18.8627 78.3849 19.1472C78.7747 19.4317 79.2305 19.5739 79.752 19.5739C80.1366 19.5739 80.4817 19.4949 80.7873 19.3369C81.0981 19.1788 81.3536 18.9496 81.5538 18.6493C81.7593 18.3438 81.8936 17.9776 81.9568 17.5509H85.1336C85.081 18.4781 84.8281 19.2947 84.375 20.0007C83.9272 20.7014 83.3082 21.2493 82.5179 21.6444C81.7277 22.0395 80.7925 22.2371 79.7125 22.2371ZM92.6327 9.86173V12.3905H85.3229V9.86173H92.6327ZM86.9824 6.9536H90.3489V18.27C90.3489 18.5808 90.3963 18.8232 90.4912 18.997C90.586 19.1656 90.7177 19.2842 90.8863 19.3527C91.0601 19.4211 91.2603 19.4554 91.4869 19.4554C91.6449 19.4554 91.803 19.4422 91.961 19.4159C92.1191 19.3843 92.2402 19.3606 92.3245 19.3448L92.854 21.8499C92.6854 21.9025 92.4483 21.9631 92.1428 22.0316C91.8372 22.1054 91.4658 22.1501 91.0285 22.166C90.2172 22.1976 89.506 22.0896 88.8948 21.8419C88.289 21.5943 87.8175 21.2097 87.4803 20.6882C87.1431 20.1666 86.9772 19.5081 86.9824 18.7126V6.9536ZM94.037 22V5.81564H104.753V8.63684H97.4588V12.4933H104.042V15.3145H97.4588V22H94.037ZM109.188 22.2292C108.413 22.2292 107.723 22.0948 107.117 21.8261C106.511 21.5522 106.032 21.1492 105.679 20.6171C105.331 20.0797 105.157 19.4106 105.157 18.6098C105.157 17.9355 105.281 17.3691 105.529 16.9108C105.776 16.4524 106.114 16.0836 106.54 15.8044C106.967 15.5252 107.452 15.3145 107.994 15.1722C108.542 15.03 109.117 14.9299 109.717 14.8719C110.423 14.7982 110.992 14.7297 111.424 14.6665C111.856 14.598 112.17 14.4979 112.365 14.3662C112.559 14.2345 112.657 14.0395 112.657 13.7814V13.734C112.657 13.2335 112.499 12.8462 112.183 12.5723C111.872 12.2983 111.429 12.1614 110.855 12.1614C110.249 12.1614 109.767 12.2957 109.409 12.5644C109.051 12.8278 108.814 13.1597 108.698 13.5601L105.584 13.3072C105.742 12.5697 106.053 11.9322 106.517 11.3948C106.98 10.8522 107.578 10.436 108.311 10.1462C109.048 9.85119 109.902 9.70368 110.871 9.70368C111.545 9.70368 112.191 9.78271 112.807 9.94075C113.429 10.0988 113.979 10.3438 114.459 10.6757C114.943 11.0076 115.325 11.4343 115.605 11.9559C115.884 12.4722 116.023 13.0912 116.023 13.813V22H112.831V20.3168H112.736C112.541 20.6961 112.28 21.0306 111.954 21.3204C111.627 21.6049 111.234 21.8288 110.776 21.9921C110.318 22.1501 109.788 22.2292 109.188 22.2292ZM110.152 19.9058C110.647 19.9058 111.084 19.8084 111.464 19.6134C111.843 19.4132 112.141 19.1446 112.357 18.8074C112.573 18.4702 112.681 18.0883 112.681 17.6615V16.3734C112.575 16.4419 112.43 16.5051 112.246 16.5631C112.067 16.6158 111.864 16.6658 111.638 16.7132C111.411 16.7554 111.184 16.7949 110.958 16.8318C110.731 16.8634 110.526 16.8923 110.341 16.9187C109.946 16.9766 109.601 17.0688 109.306 17.1953C109.011 17.3217 108.782 17.4929 108.619 17.7089C108.455 17.9197 108.374 18.1831 108.374 18.4992C108.374 18.9575 108.54 19.3079 108.872 19.5502C109.209 19.7873 109.636 19.9058 110.152 19.9058ZM123.007 22.2371C121.764 22.2371 120.694 21.9737 119.798 21.4468C118.908 20.9147 118.223 20.1772 117.744 19.2341C117.27 18.2911 117.033 17.2058 117.033 15.9783C117.033 14.735 117.272 13.6444 117.752 12.7066C118.236 11.7636 118.924 11.0287 119.814 10.5018C120.705 9.96973 121.764 9.70368 122.991 9.70368C124.05 9.70368 124.977 9.89597 125.773 10.2806C126.568 10.6652 127.198 11.2052 127.661 11.9006C128.125 12.596 128.381 13.4126 128.428 14.3504H125.251C125.162 13.7445 124.925 13.2572 124.54 12.8884C124.161 12.5143 123.663 12.3273 123.046 12.3273C122.525 12.3273 122.069 12.4696 121.679 12.7541C121.295 13.0333 120.994 13.4416 120.778 13.9789C120.562 14.5163 120.454 15.167 120.454 15.9309C120.454 16.7053 120.56 17.3639 120.77 17.9065C120.986 18.4491 121.289 18.8627 121.679 19.1472C122.069 19.4317 122.525 19.5739 123.046 19.5739C123.431 19.5739 123.776 19.4949 124.082 19.3369C124.392 19.1788 124.648 18.9496 124.848 18.6493C125.054 18.3438 125.188 17.9776 125.251 17.5509H128.428C128.375 18.4781 128.122 19.2947 127.669 20.0007C127.222 20.7014 126.603 21.2493 125.812 21.6444C125.022 22.0395 124.087 22.2371 123.007 22.2371ZM135.927 9.86173V12.3905H128.617V9.86173H135.927ZM130.277 6.9536H133.643V18.27C133.643 18.5808 133.691 18.8232 133.786 18.997C133.88 19.1656 134.012 19.2842 134.181 19.3527C134.354 19.4211 134.555 19.4554 134.781 19.4554C134.939 19.4554 135.097 19.4422 135.255 19.4159C135.413 19.3843 135.535 19.3606 135.619 19.3448L136.148 21.8499C135.98 21.9025 135.743 21.9631 135.437 22.0316C135.132 22.1054 134.76 22.1501 134.323 22.166C133.512 22.1976 132.8 22.0896 132.189 21.8419C131.583 21.5943 131.112 21.2097 130.775 20.6882C130.437 20.1666 130.272 19.5081 130.277 18.7126V6.9536ZM146.955 13.323L143.873 13.5127C143.82 13.2493 143.707 13.0122 143.533 12.8015C143.359 12.5855 143.13 12.4142 142.845 12.2878C142.566 12.1561 142.232 12.0902 141.842 12.0902C141.32 12.0902 140.88 12.2009 140.522 12.4221C140.164 12.6381 139.985 12.9279 139.985 13.2914C139.985 13.5812 140.101 13.8262 140.332 14.0264C140.564 14.2266 140.962 14.3872 141.526 14.5084L143.723 14.951C144.903 15.1933 145.782 15.5832 146.362 16.1205C146.941 16.6579 147.231 17.3639 147.231 18.2384C147.231 19.0339 146.997 19.732 146.528 20.3326C146.064 20.9332 145.427 21.402 144.616 21.7392C143.809 22.0711 142.88 22.2371 141.826 22.2371C140.219 22.2371 138.939 21.9025 137.985 21.2335C137.037 20.5591 136.481 19.6424 136.318 18.4834L139.629 18.3095C139.729 18.7995 139.971 19.1735 140.356 19.4317C140.741 19.6846 141.233 19.811 141.834 19.811C142.424 19.811 142.898 19.6977 143.256 19.4712C143.62 19.2394 143.804 18.9417 143.809 18.5782C143.804 18.2726 143.675 18.0224 143.422 17.8275C143.169 17.6273 142.779 17.4745 142.253 17.3691L140.151 16.9503C138.965 16.7132 138.083 16.3023 137.503 15.7175C136.929 15.1327 136.642 14.3872 136.642 13.4811C136.642 12.7014 136.853 12.0297 137.274 11.4659C137.701 10.9022 138.299 10.4676 139.068 10.162C139.842 9.85646 140.749 9.70368 141.786 9.70368C143.319 9.70368 144.526 10.0277 145.406 10.6757C146.291 11.3237 146.807 12.2061 146.955 13.323Z" fill="#61DAFB"/>
<g clip-path="url(#clip0_0_30)">
<path d="M14.4653 17.0241C15.892 17.0241 17.0486 15.8675 17.0486 14.4408C17.0486 13.014 15.892 11.8575 14.4653 11.8575C13.0385 11.8575 11.8819 13.014 11.8819 14.4408C11.8819 15.8675 13.0385 17.0241 14.4653 17.0241Z" fill="#00D8FF"/>
<path fill-rule="evenodd" clip-rule="evenodd" d="M14.4658 9.18842C17.9342 9.18842 21.1563 9.68611 23.5858 10.5225C26.513 11.5302 28.3127 13.0577 28.3127 14.4409C28.3127 15.8822 26.4053 17.5049 23.262 18.5464C20.8855 19.3338 17.7582 19.7448 14.4658 19.7448C11.0901 19.7448 7.8935 19.359 5.49025 18.5378C2.4497 17.4985 0.618347 15.8547 0.618347 14.4409C0.618347 13.0689 2.33672 11.5533 5.22274 10.547C7.66126 9.69687 10.9629 9.18842 14.4653 9.18842H14.4658Z" stroke="#00D8FF" stroke-width="1.23587"/>
<path fill-rule="evenodd" clip-rule="evenodd" d="M9.89374 11.8297C11.6265 8.82508 13.6673 6.28248 15.6055 4.59573C17.9408 2.56344 20.1632 1.76754 21.3613 2.45845C22.6099 3.17849 23.0628 5.64153 22.3946 8.88476C21.89 11.3368 20.6833 14.2511 19.0384 17.1033C17.352 20.0276 15.4209 22.604 13.5091 24.2751C11.0899 26.3898 8.75098 27.1551 7.52618 26.4488C6.33768 25.7639 5.88319 23.5177 6.45334 20.5149C6.93507 17.9778 8.14401 14.8636 9.89318 11.8296L9.89374 11.8297Z" stroke="#00D8FF" stroke-width="1.23587"/>
<path fill-rule="evenodd" clip-rule="evenodd" d="M9.89694 17.1109C8.15926 14.1097 6.97617 11.0713 6.48233 8.5497C5.88788 5.51152 6.30818 3.1886 7.50522 2.49569C8.75263 1.77353 11.1127 2.61124 13.5888 4.80986C15.4609 6.4721 17.3833 8.97252 19.033 11.822C20.7242 14.7435 21.9918 17.7032 22.4849 20.1941C23.1089 23.3463 22.6039 25.7547 21.3802 26.4631C20.1929 27.1504 18.0202 26.4227 15.7035 24.429C13.746 22.7446 11.6518 20.142 9.89694 17.1109V17.1109Z" stroke="#00D8FF" stroke-width="1.23587"/>
</g>
<defs>
<clipPath id="clip0_0_30">
<rect width="28.9295" height="28.9295" fill="white"/>
</clipPath>
</defs>
</svg>
